<svg width="14" height="10" viewBox="0 0 14 10" fill="none" xmlns="http://www.w3.org/2000/svg">
<path fill-rule="evenodd" clip-rule="evenodd" d="M0 4.50123C0.166687 2.95898 3.86714 0.0343064 6.66748 0.00068398C11.2097 -0.0538524 13.7517 3.16732 14.0017 4.50123C13.7934 5.95933 10.6346 9.05968 7.16754 9.12636C3.70045 9.19303 0.166687 6.12603 0 4.50123ZM8.95866 4.50057C8.95866 5.58213 8.08188 6.4589 7.00033 6.4589C5.91877 6.4589 5.04199 5.58213 5.04199 4.50057C5.04199 3.41901 5.91877 2.54224 7.00033 2.54224C8.08188 2.54224 8.95866 3.41901 8.95866 4.50057ZM9.95866 4.50057C9.95866 6.13441 8.63417 7.4589 7.00033 7.4589C5.36648 7.4589 4.04199 6.13441 4.04199 4.50057C4.04199 2.86673 5.36648 1.54224 7.00033 1.54224C8.63417 1.54224 9.95866 2.86673 9.95866 4.50057Z" fill="#BEBEBE"/>
</svg>
